ISO-10303-21;
HEADER;
FILE_DESCRIPTION(('Minimal untrimmed-patch regression fixture'), '2;1');
FILE_NAME('untrimmed_patch', '2025-11-24 21:57:02', (('')), (('')), 'truck', '', '');
FILE_SCHEMA(('ISO-10303-042'));
ENDSEC;
DATA;
#1 = APPLICATION_PROTOCOL_DEFINITION('international standard', 'automotive_design', 2000, #2);
#2 = APPLICATION_CONTEXT('core data for automotive mechanical design processes');
#3 = SHAPE_DEFINITION_REPRESENTATION(#4, #10);
#4 = PRODUCT_DEFINITION_SHAPE('','', #5);
#5 = PRODUCT_DEFINITION('design','', #6, #9);
#6 = PRODUCT_DEFINITION_FORMATION('','', #7);
#7 = PRODUCT('','','', (#8));
#8 = PRODUCT_CONTEXT('', #2, 'mechanical');
#9 = PRODUCT_DEFINITION_CONTEXT('part definition', #2, 'design');
#10 = ADVANCED_BREP_SHAPE_REPRESENTATION('', (#16), #11);
#11 = (
    GEOMETRIC_REPRESENTATION_CONTEXT(3) 
    GLOBAL_UNCERTAINTY_ASSIGNED_CONTEXT((#15))
    GLOBAL_UNIT_ASSIGNED_CONTEXT((#12, #13, #14))
    REPRESENTATION_CONTEXT('Context #1', '3D Context with UNIT and UNCERTAINTY')
);
#12 = ( LENGTH_UNIT() NAMED_UNIT(*) SI_UNIT(.MILLI.,.METRE.) );
#13 = ( NAMED_UNIT(*) PLANE_ANGLE_UNIT() SI_UNIT($,.RADIAN.) );
#14 = ( NAMED_UNIT(*) SI_UNIT($,.STERADIAN.) SOLID_ANGLE_UNIT() );
#15 = UNCERTAINTY_MEASURE_WITH_UNIT(1.0E-6, #12, 'distance_accuracy_value','confusion accuracy');
#16 = SHELL_BASED_SURFACE_MODEL('', (#17));
#17 = OPEN_SHELL('', (#18));
#18 = FACE_SURFACE('', (#19), #4278, .T.);
#19 = FACE_BOUND('', #20, .T.);
#20 = VERTEX_LOOP('', #21);
#21 = VERTEX_POINT('', #22);
#22 = POINT_ON_SURFACE('', #4278, 0.0, 0.0);
#4278 = B_SPLINE_SURFACE_WITH_KNOTS('', 3, 3, ((#4279, #4280, #4281, #4282), (#4283, #4284, #4285, #4286), (#4287, #4288, #4289, #4290), (#4291, #4292, #4293, #4294)), .UNSPECIFIED., .U., .U., .U., (1, 1, 1, 1, 1, 1, 1, 1), (1, 1, 1, 1, 1, 1, 1, 1), (-3.0, -2.0, -1.0, 0.0, 1.0, 2.0, 3.0, 4.0), (-3.0, -2.0, -1.0, 0.0, 1.0, 2.0, 3.0, 4.0), .UNSPECIFIED.);
#4279 = CARTESIAN_POINT('', (-0.5, -0.5, -0.5));
#4280 = CARTESIAN_POINT('', (-0.25, -0.5, -0.5));
#4281 = CARTESIAN_POINT('', (-0.0277777761220932, -0.4722222089767456, -0.4722222089767456));
#4282 = CARTESIAN_POINT('', (0.1388888955116272, -0.3888888955116272, -0.3888888955116272));
#4283 = CARTESIAN_POINT('', (-0.5, -0.25, -0.5));
#4284 = CARTESIAN_POINT('', (-0.25, -0.25, -0.5));
#4285 = CARTESIAN_POINT('', (-0.0217013880610466, -0.2361111044883728, -0.4782986044883728));
#4286 = CARTESIAN_POINT('', (0.1631944477558136, -0.1944444477558136, -0.4131944477558136));
#4287 = CARTESIAN_POINT('', (-0.4722222089767456, -0.0277777761220932, -0.4722222089767456));
#4288 = CARTESIAN_POINT('', (-0.2361111044883728, -0.0217013880610466, -0.4782986044883728));
#4289 = CARTESIAN_POINT('', (-0.0151909738779068, -0.0151909738779068, -0.4661458134651184));
#4290 = CARTESIAN_POINT('', (0.1753472089767456, -7.8125000000E-3, -0.4175347089767456));
#4291 = CARTESIAN_POINT('', (-0.3888888955116272, 0.1388888955116272, -0.3888888955116272));
#4292 = CARTESIAN_POINT('', (-0.1944444477558136, 0.1631944477558136, -0.4131944477558136));
#4293 = CARTESIAN_POINT('', (-7.8125000000E-3, 0.1753472089767456, -0.4175347089767456));
#4294 = CARTESIAN_POINT('', (0.1631944477558136, 0.1631944477558136, -0.3819444477558136));
ENDSEC;
END-ISO-10303-21;
